<svg width="1500" height="1500" viewBox="0 0 1500 1500" fill="none" xmlns="http://www.w3.org/2000/svg">
<g clip-path="url(#clip0)">
<line x1="-70.8669" y1="2371.93" x2="449.209" y2="-577.573" stroke="#AEAEAE" stroke-width="2"/>
<path d="M147.921 899.268C149.021 893.031 151.383 887.885 155.007 883.829C158.642 879.708 163.357 876.945 169.152 875.54C174.893 874.056 181.445 874.11 188.808 875.702C195.976 877.252 202.091 879.972 207.155 883.862C212.231 887.686 215.877 892.326 218.095 897.781C220.324 903.17 220.906 908.885 219.841 914.925C218.741 921.162 216.373 926.341 212.738 930.462C209.114 934.518 204.432 937.288 198.691 938.773C192.896 940.177 186.317 940.084 178.954 938.491C171.787 936.941 165.665 934.254 160.589 930.43C155.525 926.54 151.879 921.901 149.65 916.511C147.432 911.056 146.856 905.308 147.921 899.268ZM149.611 900.043C148.87 904.245 149.682 908.271 152.047 912.122C154.359 915.894 157.964 919.229 162.865 922.13C167.776 924.964 173.588 927.107 180.3 928.559C187.076 930.024 193.206 930.362 198.69 929.571C204.185 928.715 208.622 926.948 212.003 924.272C215.384 921.595 217.433 918.221 218.151 914.151C218.892 909.949 218.106 905.962 215.795 902.191C213.43 898.34 209.792 894.997 204.88 892.162C199.98 889.262 194.174 887.086 187.462 885.635C180.686 884.169 174.55 883.865 169.055 884.721C163.572 885.511 159.14 887.245 155.759 889.922C152.378 892.598 150.329 895.972 149.611 900.043ZM179.118 833.406C179.581 830.78 180.706 828.808 182.495 827.491C184.294 826.108 186.269 825.649 188.42 826.114C190.114 826.481 191.487 827.323 192.54 828.641C193.539 829.88 193.888 831.352 193.587 833.059C193.333 834.504 192.657 835.653 191.559 836.506C190.473 837.293 189.148 837.518 187.585 837.18C185.434 836.715 183.872 835.218 182.897 832.69C182.164 833.008 181.717 833.627 181.555 834.546C181.103 837.107 181.702 839.656 183.352 842.194C184.936 844.718 187.058 846.88 189.716 848.682C192.375 850.484 194.975 851.66 197.516 852.209L218.237 856.691C221.235 857.339 223.47 856.937 224.944 855.483C226.43 853.964 227.479 851.465 228.093 847.985L230.145 848.429L229.631 850.772C228.254 857.426 227.404 861.672 227.08 863.511C226.779 865.218 226.226 869.12 225.422 875.216L223.369 874.772C223.856 872.015 223.708 869.972 222.928 868.645C222.082 867.303 220.323 866.343 217.652 865.766L187.059 859.149C184.062 858.501 181.781 858.587 180.215 859.407C178.65 860.227 177.625 862.016 177.138 864.773L175.086 864.329C175.652 862.271 176.108 860.257 176.456 858.287C177.185 854.151 177.331 850.638 176.893 847.749L189.111 850.391C186.061 848.505 183.491 846.007 181.402 842.897C179.323 839.721 178.562 836.557 179.118 833.406ZM185.712 804.64L188.282 790.065L190.237 790.488L187.667 805.063L225.492 813.244C228.424 813.878 230.635 813.811 232.123 813.042C233.623 812.208 234.553 810.773 234.911 808.738C235.27 806.703 234.763 804.787 233.388 802.99C232.014 801.193 229.557 799.401 226.016 797.613L226.852 795.749C235.555 799.335 239.298 804.575 238.083 811.469C237.689 813.701 237.104 815.483 236.328 816.815C235.553 818.146 234.512 819.25 233.208 820.127C231.52 821.261 229.581 821.898 227.391 822.038C225.214 822.112 222.366 821.769 218.847 821.008L186.104 813.926L184.437 823.381L182.482 822.958L184.149 813.504L169.195 810.269C169.713 806.565 169.778 803.512 169.389 801.11L185.712 804.64ZM202.044 772.439C198.228 769.91 195.663 767.004 194.348 763.721C192.979 760.358 192.619 756.838 193.267 753.161C194.078 748.565 195.929 745.353 198.822 743.525C200.345 742.56 202.13 742.026 204.178 741.923C206.225 741.821 208.911 742.129 212.234 742.848L238.33 748.492C241.002 749.07 242.957 748.913 244.197 748.023C245.371 747.118 246.201 745.287 246.687 742.529L248.74 742.973C247.414 748.957 246.589 752.868 246.265 754.706C245.941 756.545 245.423 760.25 244.711 765.821L242.659 765.377C243.087 762.948 242.894 761.168 242.078 760.037C241.209 758.827 239.439 757.933 236.767 757.355L208.521 751.246C204.872 750.457 202.01 750.383 199.935 751.025C197.795 751.653 196.441 753.575 195.874 756.792C195.399 759.484 195.726 762.042 196.854 764.467C197.994 766.827 199.828 768.893 202.357 770.667C204.82 772.426 207.745 773.673 211.134 774.405L232.93 779.119C235.601 779.697 237.54 779.639 238.744 778.946C239.895 778.172 240.685 776.571 241.113 774.142L243.166 774.586C241.933 780.044 241.154 783.693 240.83 785.531C240.506 787.369 239.942 791.337 239.137 797.433L237.085 796.989C237.571 794.232 237.424 792.189 236.643 790.862C235.797 789.52 234.039 788.561 231.367 787.983L175.655 775.933C172.658 775.285 170.377 775.371 168.811 776.191C167.246 777.011 166.221 778.8 165.734 781.558L163.682 781.114C164.248 779.055 164.704 777.041 165.052 775.071C165.781 770.935 165.927 767.423 165.489 764.533L202.044 772.439ZM202.052 703.341C203.233 696.644 206.397 691.739 211.546 688.627C216.641 685.435 223.652 684.805 232.579 686.735C241.506 688.666 247.788 692.172 251.424 697.252C255.072 702.267 256.306 708.122 255.125 714.819C253.944 721.516 250.806 726.46 245.711 729.652C240.628 732.778 233.622 733.376 224.695 731.446C215.768 729.515 209.481 726.042 205.833 721.027C202.131 715.933 200.871 710.037 202.052 703.341ZM204.007 703.763C203.312 707.703 204.782 711.258 208.417 714.43C211.987 717.587 217.974 720.075 226.38 721.893C234.785 723.711 241.178 723.901 245.558 722.463C249.938 721.024 252.475 718.336 253.17 714.396C253.865 710.457 252.427 706.909 248.857 703.751C245.288 700.594 239.3 698.106 230.895 696.288C222.489 694.47 216.096 694.28 211.716 695.718C207.271 697.142 204.701 699.824 204.007 703.763ZM256.263 637.585C259.26 638.233 261.541 638.148 263.106 637.327C264.672 636.507 265.697 634.718 266.184 631.961L268.236 632.405C267.682 634.398 267.225 636.412 266.866 638.447C266.137 642.583 265.991 646.096 266.429 648.985L257.73 647.104C260.454 648.92 262.389 651.179 263.536 653.88C264.618 656.568 264.858 659.619 264.256 663.033C263.145 669.336 260.023 673.806 254.89 676.445C249.769 679.018 242.881 679.334 234.226 677.394C228.557 676.168 223.909 674.14 220.282 671.311C216.6 668.402 214.045 665.055 212.616 661.27C211.198 657.419 210.847 653.458 211.565 649.388C212.005 646.893 212.893 644.734 214.23 642.91C215.512 641.006 217.241 639.642 219.416 638.817L200.454 634.716C197.457 634.068 195.175 634.154 193.61 634.974C192.045 635.794 191.019 637.583 190.533 640.341L188.481 639.897C189.047 637.838 189.503 635.824 189.851 633.854C190.58 629.718 190.726 626.205 190.288 623.316L256.263 637.585ZM261.827 659.543C262.279 656.982 261.707 654.473 260.111 652.015C258.515 649.557 255.994 647.546 252.55 645.983L223.423 639.684C218.093 640.371 214.936 643.505 213.952 649.086C213.234 653.157 214.741 656.89 218.471 660.287C222.136 663.67 227.949 666.188 235.91 667.842C243.718 669.598 249.812 669.758 254.192 668.319C258.507 666.867 261.052 663.942 261.827 659.543ZM221.655 592.165C222.836 585.468 226.001 580.564 231.149 577.452C236.244 574.26 243.255 573.629 252.182 575.56C261.109 577.49 267.391 580.996 271.027 586.076C274.675 591.091 275.909 596.947 274.728 603.644C273.547 610.34 270.409 615.285 265.314 618.477C260.231 621.603 253.226 622.201 244.299 620.27C235.372 618.339 229.084 614.867 225.436 609.852C221.735 604.757 220.474 598.862 221.655 592.165ZM223.61 592.588C222.915 596.527 224.385 600.082 228.02 603.254C231.59 606.412 237.577 608.899 245.983 610.717C254.389 612.535 260.781 612.725 265.161 611.287C269.541 609.849 272.079 607.16 272.773 603.221C273.468 599.282 272.03 595.733 268.461 592.576C264.891 589.418 258.904 586.93 250.498 585.112C242.092 583.294 235.699 583.105 231.319 584.543C226.874 585.967 224.305 588.649 223.61 592.588ZM232.749 529.25C233.559 524.655 235.411 521.443 238.303 519.615C239.827 518.649 241.612 518.115 243.659 518.013C245.707 517.91 248.392 518.218 251.715 518.937L277.812 524.581C280.483 525.159 282.439 525.003 283.678 524.112C284.852 523.207 285.683 521.376 286.169 518.619L288.221 519.063C286.896 525.046 286.071 528.958 285.747 530.796C285.423 532.634 284.905 536.339 284.193 541.91L282.14 541.466C282.569 539.037 282.375 537.257 281.56 536.127C280.691 534.916 278.921 534.022 276.249 533.445L248.002 527.335C244.353 526.546 241.491 526.472 239.416 527.114C237.276 527.742 235.923 529.664 235.355 532.881C234.881 535.573 235.24 538.139 236.434 540.578C237.627 543.017 239.488 545.123 242.016 546.897C244.491 548.591 247.39 549.797 250.713 550.516L272.411 555.209C275.083 555.787 277.021 555.729 278.226 555.035C279.377 554.262 280.166 552.66 280.595 550.231L282.647 550.675C281.414 556.134 280.636 559.782 280.311 561.62C279.987 563.459 279.423 567.426 278.619 573.523L276.566 573.079C277.052 570.321 276.905 568.279 276.125 566.951C275.279 565.61 273.52 564.65 270.849 564.072L240.256 557.456C237.258 556.807 234.977 556.893 233.412 557.713C231.847 558.534 230.821 560.322 230.335 563.08L228.282 562.636C228.848 560.577 229.305 558.563 229.652 556.594C230.382 552.457 230.527 548.945 230.09 546.056L241.623 548.55C237.742 546.007 235.144 543.093 233.829 539.81C232.461 536.447 232.1 532.927 232.749 529.25ZM241.537 488.04L244.107 473.465L246.062 473.888L243.492 488.463L281.317 496.644C284.25 497.278 286.46 497.211 287.948 496.442C289.448 495.608 290.378 494.173 290.737 492.138C291.096 490.103 290.588 488.187 289.214 486.39C287.839 484.593 285.382 482.801 281.841 481.013L282.677 479.149C291.38 482.735 295.124 487.975 293.908 494.868C293.514 497.101 292.93 498.883 292.154 500.214C291.378 501.546 290.337 502.65 289.033 503.527C287.345 504.661 285.406 505.298 283.217 505.438C281.039 505.512 278.191 505.169 274.672 504.408L241.929 497.326L240.262 506.78L238.307 506.358L239.974 496.903L225.02 493.669C225.538 489.964 225.603 486.911 225.215 484.51L241.537 488.04ZM222.327 452.548C222.628 450.841 223.507 449.498 224.965 448.518C226.423 447.539 228 447.232 229.694 447.598C231.388 447.965 232.744 448.906 233.762 450.421C234.78 451.936 235.139 453.547 234.838 455.254C234.537 456.961 233.657 458.304 232.199 459.284C230.741 460.264 229.165 460.57 227.471 460.204C225.777 459.838 224.421 458.897 223.403 457.382C222.385 455.866 222.026 454.255 222.327 452.548ZM288.911 461.633C291.583 462.211 293.538 462.054 294.778 461.164C295.952 460.259 296.782 458.428 297.268 455.67L299.321 456.114C297.995 462.098 297.165 466.042 296.829 467.946C296.493 469.85 295.923 473.85 295.119 479.947L293.066 479.503C293.552 476.745 293.405 474.703 292.624 473.375C291.779 472.034 290.02 471.074 287.349 470.496L256.756 463.88C253.758 463.231 251.477 463.317 249.912 464.137C248.347 464.958 247.321 466.746 246.835 469.504L244.782 469.06C245.348 467.001 245.805 464.987 246.152 463.018C246.882 458.881 247.027 455.369 246.59 452.48L288.911 461.633ZM251.61 422.284C252.026 419.921 252.755 417.897 253.796 416.214C254.837 414.531 255.945 413.237 257.119 412.332C257.767 411.722 258.132 411.188 258.213 410.728C258.422 409.547 257.116 408.514 254.295 407.632L254.694 405.367C257.841 406.32 263.356 407.649 271.241 409.354L270.841 411.619C266.413 411.411 262.613 412.055 259.441 413.55C256.28 414.979 254.341 417.729 253.623 421.799C253.206 424.163 253.549 426.248 254.651 428.054C255.688 429.846 257.379 430.995 259.725 431.503C262.006 431.996 264.067 431.624 265.909 430.386C267.685 429.135 269.955 427.002 272.719 423.987C273.149 423.467 273.859 422.7 274.85 421.687C277.337 419.09 279.492 417.034 281.315 415.52C283.138 414.006 285.125 412.902 287.276 412.209C289.44 411.45 291.792 411.345 294.333 411.895C298.634 412.825 301.7 415.192 303.532 418.996C305.376 422.735 305.881 426.968 305.047 431.695C304.526 434.649 303.613 437.144 302.307 439.179C301.336 440.468 300.219 441.624 298.956 442.646C298.649 442.852 298.467 443.119 298.409 443.447C298.328 443.907 298.578 444.404 299.161 444.939C299.754 445.408 300.62 445.868 301.758 446.319L301.359 448.584C297.691 447.518 291.198 445.977 281.88 443.962L282.28 441.697C288.532 442.3 293.358 441.98 296.756 440.738C300.089 439.483 302.161 436.557 302.971 431.961C303.376 429.663 302.986 427.466 301.8 425.369C300.613 423.272 298.424 421.879 295.231 421.188C292.69 420.639 290.383 421.06 288.311 422.452C286.251 423.778 283.636 426.144 280.465 429.547C277.878 432.327 275.776 434.463 274.16 435.954C272.556 437.379 270.705 438.478 268.607 439.251C266.509 440.024 264.189 440.136 261.648 439.586C257.543 438.698 254.659 436.643 252.994 433.421C251.33 430.198 250.869 426.486 251.61 422.284ZM260.53 380.327L263.1 365.752L265.055 366.174L262.485 380.75L300.31 388.93C303.242 389.565 305.453 389.497 306.941 388.729C308.441 387.895 309.371 386.46 309.729 384.424C310.088 382.389 309.581 380.473 308.206 378.677C306.832 376.88 304.375 375.087 300.834 373.299L301.67 371.435C310.373 375.022 314.116 380.261 312.901 387.155C312.507 389.387 311.922 391.169 311.146 392.501C310.37 393.833 309.33 394.937 308.026 395.813C306.338 396.948 304.399 397.585 302.209 397.725C300.032 397.799 297.184 397.455 293.665 396.694L260.922 389.613L259.255 399.067L257.3 398.644L258.967 389.19L244.013 385.956C244.531 382.251 244.596 379.198 244.207 376.797L260.53 380.327Z" fill="#CBCBCB"/>
<path d="M83.93 1281.75C83.6435 1284.14 83.5974 1285.93 83.7915 1287.14C83.9973 1288.27 84.6193 1289.15 85.6575 1289.79C86.6958 1290.42 88.453 1291.01 90.9291 1291.54L139.408 1302.03C141.884 1302.56 143.711 1302.75 144.888 1302.6C146.065 1302.44 146.942 1301.88 147.518 1300.92C148.106 1299.89 148.673 1298.2 149.22 1295.87L151.175 1296.29C150.447 1299.27 149.614 1303.42 148.677 1308.73C147.681 1314.38 147.038 1318.6 146.747 1321.4L144.792 1320.98C145.079 1318.59 145.119 1316.82 144.913 1315.69C144.719 1314.49 144.103 1313.57 143.065 1312.94C142.027 1312.31 140.269 1311.72 137.793 1311.19L85.4045 1299.85L144.457 1337.27L144.18 1338.84L76.3704 1349.94L127.977 1361.1C130.518 1361.65 132.443 1361.86 133.75 1361.74C135.069 1361.54 136.132 1360.89 136.938 1359.77C137.68 1358.63 138.347 1356.77 138.94 1354.17L140.895 1354.59C140.283 1356.91 139.595 1360.24 138.831 1364.57C138.136 1368.51 137.696 1371.59 137.509 1373.79L135.554 1373.37C135.829 1371.05 135.804 1369.27 135.48 1368.04C135.09 1366.8 134.311 1365.84 133.143 1365.18C131.909 1364.51 130.054 1363.9 127.578 1363.37L80.076 1353.09C77.6 1352.56 75.7733 1352.37 74.5962 1352.52C73.419 1352.67 72.5365 1353.27 71.9487 1354.3C71.3726 1355.26 70.8109 1356.92 70.2638 1359.25L68.309 1358.83C68.8866 1356.7 69.5226 1353.67 70.2172 1349.73C70.8192 1346.32 71.2134 1343.51 71.4 1341.3L131.812 1331.87L79.2469 1298.52L80.063 1293.89C81.0007 1288.58 81.6381 1284.39 81.9752 1281.32L83.93 1281.75ZM104.654 1255.71C105.835 1249.01 109 1244.11 114.148 1241C119.244 1237.8 126.255 1237.17 135.181 1239.1C144.108 1241.04 150.39 1244.54 154.026 1249.62C157.674 1254.64 158.908 1260.49 157.727 1267.19C156.546 1273.88 153.408 1278.83 148.313 1282.02C143.23 1285.15 136.225 1285.75 127.298 1283.81C118.371 1281.88 112.083 1278.41 108.435 1273.4C104.734 1268.3 103.474 1262.41 104.654 1255.71ZM106.609 1256.13C105.915 1260.07 107.385 1263.63 111.019 1266.8C114.589 1269.96 120.577 1272.44 128.982 1274.26C137.388 1276.08 143.781 1276.27 148.161 1274.83C152.541 1273.39 155.078 1270.7 155.772 1266.77C156.467 1262.83 155.03 1259.28 151.46 1256.12C147.89 1252.96 141.903 1250.47 133.497 1248.66C125.091 1246.84 118.699 1246.65 114.319 1248.09C109.874 1249.51 107.304 1252.19 106.609 1256.13ZM114.175 1210.35L116.745 1195.77L118.7 1196.19L116.13 1210.77L153.955 1218.95C156.888 1219.58 159.098 1219.52 160.586 1218.75C162.086 1217.91 163.016 1216.48 163.375 1214.44C163.733 1212.41 163.226 1210.49 161.851 1208.7C160.477 1206.9 158.02 1205.11 154.479 1203.32L155.315 1201.45C164.018 1205.04 167.762 1210.28 166.546 1217.17C166.152 1219.41 165.568 1221.19 164.792 1222.52C164.016 1223.85 162.975 1224.96 161.671 1225.83C159.983 1226.97 158.044 1227.6 155.855 1227.74C153.677 1227.82 150.829 1227.47 147.31 1226.71L114.567 1219.63L112.9 1229.09L110.945 1228.66L112.612 1219.21L97.658 1215.98C98.176 1212.27 98.2408 1209.22 97.8525 1206.82L114.175 1210.35ZM130.507 1178.15C126.691 1175.62 124.126 1172.71 122.811 1169.43C121.442 1166.06 121.082 1162.54 121.73 1158.87C122.541 1154.27 124.392 1151.06 127.285 1149.23C128.808 1148.27 130.594 1147.73 132.641 1147.63C134.688 1147.53 137.374 1147.83 140.697 1148.55L166.793 1154.2C169.465 1154.78 171.42 1154.62 172.66 1153.73C173.834 1152.82 174.664 1150.99 175.15 1148.24L177.203 1148.68C175.877 1154.66 175.052 1158.57 174.728 1160.41C174.404 1162.25 173.886 1165.96 173.174 1171.53L171.122 1171.08C171.55 1168.65 171.357 1166.87 170.541 1165.74C169.672 1164.53 167.902 1163.64 165.231 1163.06L136.984 1156.95C133.335 1156.16 130.473 1156.09 128.398 1156.73C126.258 1157.36 124.904 1159.28 124.337 1162.5C123.862 1165.19 124.189 1167.75 125.317 1170.17C126.457 1172.53 128.291 1174.6 130.82 1176.37C133.283 1178.13 136.209 1179.38 139.597 1180.11L161.393 1184.83C164.065 1185.4 166.003 1185.35 167.207 1184.65C168.358 1183.88 169.148 1182.28 169.576 1179.85L171.629 1180.29C170.396 1185.75 169.617 1189.4 169.293 1191.24C168.969 1193.08 168.405 1197.04 167.6 1203.14L165.548 1202.7C166.034 1199.94 165.887 1197.9 165.106 1196.57C164.26 1195.23 162.502 1194.27 159.83 1193.69L104.118 1181.64C101.121 1180.99 98.8396 1181.08 97.2745 1181.9C95.7093 1182.72 94.6836 1184.51 94.1974 1187.26L92.1449 1186.82C92.7108 1184.76 93.1674 1182.75 93.5147 1180.78C94.244 1176.64 94.3899 1173.13 93.9523 1170.24L130.507 1178.15ZM173.773 1099.08C177.148 1101.04 179.85 1103.94 181.877 1107.78C183.851 1111.55 184.433 1115.73 183.623 1120.33C182.801 1124.99 181.046 1128.8 178.359 1131.76C175.607 1134.71 172.179 1136.7 168.076 1137.72C163.919 1138.66 159.331 1138.59 154.314 1137.5C148.645 1136.28 143.888 1134.29 140.041 1131.55C136.195 1128.81 133.46 1125.53 131.835 1121.7C130.145 1117.86 129.693 1113.71 130.48 1109.24C131.522 1103.33 134.113 1099.19 138.252 1096.82C142.338 1094.36 147.998 1093.91 155.23 1095.48L149.795 1126.3C151.585 1126.89 153.653 1127.44 155.998 1127.95C160.299 1128.88 164.167 1129 167.603 1128.31C171.051 1127.56 173.857 1126.22 176.021 1124.31C178.132 1122.31 179.413 1120.03 179.865 1117.47C180.421 1114.32 180.163 1111.37 179.093 1108.61C178.022 1105.86 175.873 1103.28 172.643 1100.88L173.773 1099.08ZM132.268 1110.04C131.724 1113.12 132.754 1116.11 135.357 1118.99C137.961 1121.87 142.149 1124.21 147.921 1126L151.706 1104.53C146.647 1103.3 142.278 1103.14 138.601 1104.05C134.934 1104.89 132.824 1106.89 132.268 1110.04ZM140.445 1052.73C140.908 1050.1 142.034 1048.13 143.822 1046.81C145.622 1045.43 147.597 1044.97 149.747 1045.44C151.441 1045.8 152.815 1046.65 153.867 1047.96C154.867 1049.2 155.216 1050.68 154.915 1052.38C154.66 1053.83 153.984 1054.98 152.887 1055.83C151.801 1056.62 150.476 1056.84 148.912 1056.5C146.762 1056.04 145.199 1054.54 144.224 1052.01C143.492 1052.33 143.044 1052.95 142.882 1053.87C142.431 1056.43 143.03 1058.98 144.679 1061.52C146.264 1064.04 148.385 1066.2 151.044 1068.01C153.703 1069.81 156.302 1070.98 158.844 1071.53L179.565 1076.01C182.562 1076.66 184.798 1076.26 186.272 1074.81C187.757 1073.29 188.806 1070.79 189.42 1067.31L191.473 1067.75L190.958 1070.09C189.582 1076.75 188.732 1081 188.407 1082.83C188.106 1084.54 187.554 1088.44 186.749 1094.54L184.697 1094.1C185.183 1091.34 185.036 1089.3 184.255 1087.97C183.409 1086.63 181.651 1085.67 178.979 1085.09L148.387 1078.47C145.389 1077.82 143.108 1077.91 141.543 1078.73C139.978 1079.55 138.952 1081.34 138.466 1084.1L136.413 1083.65C136.979 1081.59 137.436 1079.58 137.783 1077.61C138.512 1073.47 138.658 1069.96 138.221 1067.07L150.438 1069.71C147.388 1067.83 144.819 1065.33 142.729 1062.22C140.651 1059.04 139.89 1055.88 140.445 1052.73Z" fill="#CBCBCB"/>
<path d="M266.215 228.392C266.91 224.452 268.054 221.224 269.648 218.706C271.242 216.188 273.28 213.834 275.763 211.645C276.477 211.05 276.88 210.489 276.973 209.964C277.204 208.651 275.4 207.375 271.56 206.135L271.959 203.87C276.148 205.049 283.619 206.801 294.37 209.126L293.971 211.391C289.608 211.197 286.462 211.199 284.534 211.395C282.54 211.577 280.574 212.174 278.637 213.187C275.748 214.607 273.413 216.726 271.631 219.544C269.795 222.282 268.565 225.424 267.94 228.969C267.187 233.237 267.928 237.282 270.163 241.105C272.409 244.862 275.982 248.191 280.883 251.091C285.718 253.977 291.621 256.174 298.593 257.682C305.696 259.218 311.956 259.584 317.374 258.779C322.793 257.974 327.133 256.187 330.395 253.416C333.603 250.566 335.583 247.007 336.336 242.739C336.915 239.457 336.857 236.139 336.163 232.785C335.469 229.432 334.041 226.601 331.877 224.293C330.284 222.585 328.497 221.21 326.516 220.168C324.535 219.126 321.441 217.878 317.233 216.422L317.632 214.157C328.84 216.581 336.682 218.141 341.159 218.837L340.76 221.102C338.64 220.848 337.122 220.826 336.205 221.037C335.235 221.168 334.692 221.562 334.577 222.218C334.484 222.743 334.623 223.489 334.994 224.455C336.558 227.861 337.657 231.029 338.29 233.961C338.858 236.878 338.806 240.241 338.134 244.048C337.035 250.286 334.667 255.465 331.032 259.586C327.408 263.641 322.725 266.411 316.984 267.896C311.19 269.301 304.611 269.207 297.248 267.614C290.08 266.064 283.959 263.377 278.883 259.553C273.819 255.663 270.173 251.024 267.944 245.634C265.726 240.179 265.15 234.432 266.215 228.392ZM339.406 155.125C343.12 155.928 347.331 156.6 352.038 157.141C351.055 161.563 349.632 169.059 347.768 179.63C345.546 192.235 343.965 201.776 343.026 208.252L341.071 207.83C341.357 205.438 341.398 203.675 341.192 202.54C340.998 201.339 340.382 200.422 339.343 199.788C338.305 199.155 336.548 198.57 334.072 198.035L285.593 187.55C283.117 187.014 281.29 186.824 280.113 186.978C278.936 187.132 278.053 187.725 277.465 188.757C276.889 189.723 276.328 191.373 275.78 193.709L273.826 193.286C275.156 186.894 276.932 177.395 279.155 164.79C280.856 155.139 281.968 148.257 282.491 144.144C286.71 145.534 290.514 146.595 293.903 147.328C296.444 147.877 298.481 148.216 300.014 148.343L299.615 150.608C295.299 150.152 292.067 150.066 289.919 150.351C287.707 150.623 285.994 151.513 284.781 153.023C283.503 154.518 282.557 157.006 281.943 160.486L280.502 168.66C280.085 171.023 279.974 172.805 280.168 174.006C280.308 175.127 280.898 176.004 281.936 176.638C282.974 177.271 284.732 177.856 287.208 178.391L310.274 183.38L311.42 176.88C311.826 174.582 311.617 172.697 310.794 171.224C309.906 169.737 308.781 168.641 307.416 167.938C305.999 167.154 304.205 166.391 302.036 165.649L300.134 164.931L300.533 162.666C303.235 163.455 306.28 164.216 309.668 164.949L314.36 165.963C317.683 166.682 322.344 167.486 328.343 168.374L327.944 170.639C327.476 170.606 325.878 170.465 323.148 170.215C320.354 169.952 318.139 170.427 316.504 171.641C314.881 172.789 313.838 174.677 313.375 177.303L312.229 183.803L335.687 188.876C338.163 189.412 339.989 189.602 341.167 189.448C342.344 189.293 343.22 188.733 343.797 187.767C344.319 186.722 344.789 185.017 345.206 182.654L346.473 175.465C347.191 171.394 347.214 168.196 346.542 165.869C345.816 163.463 344.367 161.514 342.195 160.022C339.958 158.515 336.566 157.032 332.021 155.572L332.421 153.307C334.145 153.885 336.474 154.49 339.406 155.125ZM288.752 100.578C289.852 94.341 292.214 89.1947 295.837 85.1393C299.473 81.0182 304.188 78.2552 309.982 76.8503C315.723 75.3657 322.276 75.4196 329.639 77.0121C336.806 78.5623 342.922 81.2822 347.986 85.1719C353.062 88.996 356.708 93.6355 358.925 99.0906C361.154 104.48 361.736 110.195 360.671 116.235C359.572 122.472 357.204 127.651 353.569 131.772C349.945 135.828 345.262 138.598 339.521 140.082C333.727 141.487 327.148 141.394 319.785 139.801C312.617 138.251 306.496 135.564 301.42 131.74C296.356 127.85 292.71 123.21 290.481 117.821C288.263 112.366 287.687 106.618 288.752 100.578ZM290.442 101.353C289.701 105.554 290.513 109.581 292.878 113.432C295.189 117.204 298.795 120.539 303.695 123.439C308.607 126.274 314.419 128.417 321.13 129.868C327.907 131.334 334.037 131.672 339.52 130.881C345.015 130.025 349.453 128.258 352.834 125.581C356.215 122.905 358.264 119.531 358.982 115.461C359.722 111.259 358.937 107.272 356.626 103.501C354.261 99.6494 350.623 96.3066 345.711 93.4722C340.81 90.5721 335.005 88.3963 328.293 86.9447C321.516 85.4791 315.381 85.1744 309.886 86.0307C304.402 86.8213 299.97 88.555 296.59 91.2317C293.209 93.9084 291.16 97.282 290.442 101.353Z" fill="#CBCBCB"/>
<line x1="435.116" y1="2460" x2="955.192" y2="-489.498" stroke="#AEAEAE" stroke-width="2"/>
<path d="M651.636 1017.28C651.35 1019.67 651.304 1021.47 651.498 1022.67C651.704 1023.8 652.326 1024.69 653.364 1025.32C654.402 1025.95 656.159 1026.54 658.635 1027.07L707.114 1037.56C709.591 1038.1 711.417 1038.29 712.594 1038.13C713.772 1037.98 714.648 1037.42 715.224 1036.45C715.812 1035.42 716.38 1033.74 716.927 1031.4L718.881 1031.82C718.153 1034.8 717.321 1038.95 716.383 1044.27C715.387 1049.91 714.744 1054.14 714.453 1056.94L712.499 1056.51C712.785 1054.12 712.825 1052.36 712.62 1051.22C712.425 1050.02 711.809 1049.11 710.771 1048.47C709.733 1047.84 707.976 1047.25 705.499 1046.72L657.02 1036.23C654.544 1035.7 652.718 1035.51 651.54 1035.66C650.363 1035.82 649.481 1036.41 648.893 1037.44C648.317 1038.41 647.755 1040.06 647.208 1042.39L645.253 1041.97C645.935 1039.25 646.774 1035.07 647.769 1029.43C648.695 1024.18 649.333 1019.99 649.681 1016.86L651.636 1017.28ZM674.242 980.573C675.052 975.977 676.904 972.765 679.797 970.937C681.32 969.971 683.105 969.437 685.153 969.335C687.2 969.232 689.885 969.541 693.209 970.259L719.305 975.903C721.977 976.481 723.932 976.325 725.172 975.434C726.346 974.529 727.176 972.698 727.662 969.941L729.715 970.385C728.389 976.369 727.564 980.28 727.24 982.118C726.916 983.956 726.398 987.661 725.686 993.232L723.634 992.788C724.062 990.359 723.868 988.579 723.053 987.449C722.184 986.239 720.414 985.345 717.742 984.767L689.495 978.658C685.847 977.868 682.985 977.795 680.91 978.436C678.77 979.064 677.416 980.986 676.849 984.203C676.374 986.895 676.734 989.461 677.927 991.9C679.12 994.339 680.981 996.445 683.51 998.219C685.984 999.913 688.883 1001.12 692.206 1001.84L713.905 1006.53C716.576 1007.11 718.514 1007.05 719.719 1006.36C720.87 1005.58 721.66 1003.98 722.088 1001.55L724.141 1002C722.908 1007.46 722.129 1011.1 721.805 1012.94C721.481 1014.78 720.916 1018.75 720.112 1024.84L718.059 1024.4C718.546 1021.64 718.399 1019.6 717.618 1018.27C716.772 1016.93 715.013 1015.97 712.342 1015.39L681.749 1008.78C678.752 1008.13 676.471 1008.22 674.905 1009.04C673.34 1009.86 672.315 1011.64 671.828 1014.4L669.776 1013.96C670.342 1011.9 670.798 1009.89 671.146 1007.92C671.875 1003.78 672.021 1000.27 671.583 997.378L683.117 999.872C679.236 997.329 676.638 994.416 675.323 991.132C673.954 987.769 673.594 984.249 674.242 980.573ZM683.031 939.362L685.601 924.787L687.555 925.21L684.985 939.785L722.811 947.966C725.743 948.6 727.953 948.533 729.442 947.764C730.942 946.93 731.871 945.495 732.23 943.46C732.589 941.425 732.081 939.509 730.707 937.712C729.333 935.915 726.875 934.123 723.335 932.335L724.171 930.471C732.873 934.057 736.617 939.297 735.401 946.191C735.008 948.423 734.423 950.205 733.647 951.536C732.871 952.868 731.831 953.972 730.526 954.849C728.838 955.983 726.899 956.62 724.71 956.76C722.532 956.834 719.684 956.491 716.165 955.73L683.423 948.648L681.756 958.103L679.801 957.68L681.468 948.226L666.513 944.991C667.031 941.286 667.096 938.233 666.708 935.832L683.031 939.362ZM732.42 885.991C735.795 887.948 738.496 890.85 740.524 894.696C742.498 898.463 743.08 902.644 742.269 907.24C741.448 911.901 739.693 915.714 737.006 918.677C734.254 921.626 730.826 923.61 726.722 924.631C722.565 925.573 717.978 925.501 712.961 924.415C707.292 923.189 702.534 921.206 698.688 918.466C694.842 915.726 692.107 912.442 690.482 908.614C688.791 904.773 688.34 900.62 689.127 896.155C690.169 890.246 692.76 886.104 696.899 883.728C700.985 881.272 706.644 880.826 713.877 882.39L708.442 913.214C710.232 913.806 712.299 914.356 714.645 914.863C718.946 915.793 722.814 915.914 726.25 915.226C729.698 914.472 732.504 913.136 734.668 911.219C736.779 909.222 738.06 906.943 738.512 904.382C739.067 901.231 738.81 898.279 737.74 895.525C736.669 892.772 734.52 890.194 731.29 887.792L732.42 885.991ZM690.915 896.951C690.371 900.037 691.4 903.02 694.004 905.9C696.608 908.781 700.796 911.118 706.568 912.911L710.353 891.443C705.294 890.212 700.925 890.051 697.247 890.959C693.581 891.802 691.47 893.799 690.915 896.951ZM699.092 839.641C699.555 837.015 700.681 835.043 702.469 833.726C704.268 832.343 706.243 831.884 708.394 832.349C710.088 832.716 711.461 833.558 712.514 834.876C713.513 836.115 713.863 837.588 713.562 839.295C713.307 840.739 712.631 841.888 711.533 842.741C710.447 843.528 709.123 843.753 707.559 843.415C705.408 842.95 703.846 841.453 702.871 838.925C702.139 839.244 701.691 839.863 701.529 840.782C701.078 843.342 701.677 845.891 703.326 848.429C704.911 850.953 707.032 853.116 709.691 854.917C712.349 856.719 714.949 857.895 717.491 858.445L738.211 862.926C741.209 863.574 743.444 863.172 744.918 861.719C746.404 860.2 747.453 857.7 748.067 854.221L750.119 854.665L749.605 857.007C748.229 863.661 747.378 867.908 747.054 869.746C746.753 871.453 746.201 875.355 745.396 881.451L743.344 881.007C743.83 878.25 743.683 876.207 742.902 874.88C742.056 873.538 740.298 872.579 737.626 872.001L707.033 865.384C704.036 864.736 701.755 864.822 700.19 865.642C698.624 866.462 697.599 868.251 697.113 871.009L695.06 870.565C695.626 868.506 696.083 866.492 696.43 864.522C697.159 860.386 697.305 856.873 696.867 853.984L709.085 856.627C706.035 854.74 703.466 852.242 701.376 849.132C699.298 845.956 698.536 842.793 699.092 839.641ZM680.337 810.198C680.638 808.491 681.518 807.148 682.976 806.168C684.434 805.189 686.01 804.882 687.704 805.248C689.398 805.615 690.754 806.556 691.772 808.071C692.79 809.586 693.149 811.197 692.848 812.904C692.547 814.611 691.668 815.954 690.21 816.934C688.752 817.914 687.175 818.22 685.481 817.854C683.787 817.488 682.431 816.547 681.413 815.032C680.395 813.516 680.036 811.905 680.337 810.198ZM746.922 819.283C749.593 819.861 751.549 819.704 752.788 818.814C753.962 817.909 754.792 816.078 755.279 813.32L757.331 813.764C756.006 819.748 755.175 823.692 754.839 825.596C754.503 827.5 753.933 831.5 753.129 837.597L751.076 837.153C751.563 834.395 751.415 832.353 750.635 831.025C749.789 829.684 748.03 828.724 745.359 828.146L714.766 821.53C711.769 820.881 709.488 820.967 707.922 821.787C706.357 822.608 705.332 824.396 704.845 827.154L702.793 826.71C703.359 824.651 703.815 822.637 704.163 820.668C704.892 816.531 705.038 813.019 704.6 810.13L746.922 819.283ZM710.766 773.434C711.947 766.738 715.112 761.833 720.26 758.721C725.355 755.529 732.366 754.898 741.293 756.829C750.22 758.76 756.502 762.265 760.138 767.346C763.786 772.361 765.02 778.216 763.839 784.913C762.658 791.61 759.52 796.554 754.425 799.746C749.342 802.872 742.337 803.47 733.41 801.539C724.483 799.609 718.195 796.136 714.547 791.121C710.846 786.027 709.585 780.131 710.766 773.434ZM712.721 773.857C712.026 777.796 713.496 781.352 717.131 784.524C720.701 787.681 726.688 790.169 735.094 791.987C743.5 793.805 749.892 793.995 754.272 792.556C758.652 791.118 761.19 788.429 761.884 784.49C762.579 780.551 761.141 777.003 757.572 773.845C754.002 770.687 748.015 768.2 739.609 766.382C731.203 764.564 724.81 764.374 720.43 765.812C715.985 767.236 713.416 769.918 712.721 773.857ZM721.426 712.982C721.889 710.356 723.014 708.384 724.802 707.067C726.602 705.684 728.577 705.225 730.727 705.69C732.421 706.056 733.795 706.899 734.848 708.217C735.847 709.456 736.196 710.928 735.895 712.635C735.64 714.08 734.964 715.228 733.867 716.082C732.781 716.869 731.456 717.094 729.892 716.756C727.742 716.29 726.179 714.794 725.205 712.266C724.472 712.584 724.025 713.203 723.863 714.122C723.411 716.683 724.01 719.232 725.66 721.77C727.244 724.293 729.365 726.456 732.024 728.258C734.683 730.06 737.283 731.236 739.824 731.785L760.545 736.267C763.542 736.915 765.778 736.513 767.252 735.059C768.737 733.54 769.787 731.041 770.4 727.561L772.453 728.005L771.938 730.348C770.562 737.002 769.712 741.248 769.388 743.087C769.087 744.794 768.534 748.695 767.73 754.792L765.677 754.348C766.163 751.591 766.016 749.548 765.235 748.221C764.39 746.879 762.631 745.919 759.96 745.341L729.367 738.725C726.369 738.077 724.088 738.163 722.523 738.983C720.958 739.803 719.932 741.592 719.446 744.349L717.393 743.905C717.959 741.847 718.416 739.833 718.763 737.863C719.493 733.727 719.638 730.214 719.201 727.325L731.418 729.967C728.369 728.081 725.799 725.583 723.709 722.473C721.631 719.297 720.87 716.133 721.426 712.982ZM758.493 669.066L752.225 704.617L746.556 703.391L752.824 667.84L758.493 669.066ZM717.32 626.932C717.829 624.043 718.554 621.848 719.495 620.348C720.383 618.768 721.569 617.218 723.055 615.699C724.221 614.452 724.874 613.435 725.013 612.647C725.118 612.056 724.873 611.526 724.279 611.057C723.62 610.573 722.559 610.071 721.095 609.55L721.494 607.285C725.216 608.431 731.833 610.032 741.346 612.09L740.947 614.355C735.6 613.607 730.897 614.192 726.838 616.109C722.726 617.946 720.224 621.392 719.333 626.447C718.708 629.992 719.274 633.114 721.03 635.811C722.722 638.494 725.229 640.195 728.552 640.914C731.028 641.449 733.277 641.356 735.298 640.635C737.331 639.848 739.156 638.709 740.771 637.218C742.387 635.727 744.494 633.559 747.093 630.713L749.356 628.237C752.627 624.651 755.448 621.887 757.819 619.946C760.137 617.926 762.662 616.461 765.392 615.552C768.123 614.644 771.15 614.549 774.473 615.267C780.403 616.55 784.649 619.513 787.213 624.157C789.711 628.787 790.428 634.121 789.363 640.162C788.807 643.313 788.024 645.836 787.013 647.73C786.014 649.559 784.799 651.273 783.367 652.871C782.2 654.118 781.547 655.136 781.408 655.924C781.304 656.515 781.582 657.052 782.24 657.535C782.834 658.004 783.863 658.499 785.327 659.02L784.928 661.285C781.39 660.248 773.594 658.425 761.539 655.818L761.939 653.553C768.601 654.517 774.234 654.031 778.836 652.096C783.439 650.161 786.256 646.271 787.286 640.428C787.911 636.883 787.369 633.63 785.658 630.67C783.883 627.696 780.845 625.744 776.544 624.814C772.895 624.025 769.58 624.603 766.599 626.548C763.629 628.428 760.079 631.681 755.949 636.309C752.92 639.675 750.279 642.375 748.026 644.41C745.785 646.379 743.261 647.844 740.453 648.804C737.581 649.75 734.418 649.85 730.964 649.103C725.491 647.919 721.633 645.245 719.391 641.079C717.084 636.9 716.394 632.184 717.32 626.932ZM745.588 584.581L748.158 570.006L750.113 570.429L747.543 585.004L785.368 593.185C788.3 593.819 790.511 593.752 791.999 592.983C793.499 592.149 794.429 590.714 794.787 588.679C795.146 586.644 794.639 584.728 793.264 582.931C791.89 581.135 789.433 579.342 785.892 577.554L786.728 575.69C795.431 579.276 799.174 584.516 797.959 591.41C797.565 593.642 796.98 595.424 796.204 596.756C795.429 598.087 794.388 599.191 793.084 600.068C791.396 601.202 789.457 601.839 787.267 601.979C785.09 602.054 782.242 601.71 778.723 600.949L745.98 593.868L744.313 603.322L742.358 602.899L744.025 593.445L729.071 590.21C729.589 586.506 729.654 583.453 729.265 581.051L745.588 584.581ZM755.881 527.356C756.391 524.467 756.733 521.951 756.908 519.808L758.863 520.23C758.761 521.572 759.14 522.88 759.997 524.156C760.866 525.367 762.392 526.685 764.576 528.111L803.756 553.352L811.669 558.54C814.642 560.478 816.674 562.382 817.764 564.254C818.503 565.436 818.946 566.759 819.094 568.222C819.242 569.685 819.194 571.106 818.951 572.485C818.604 574.455 817.799 575.95 816.536 576.972C815.274 577.994 813.73 578.308 811.906 577.913C810.342 577.575 809.152 576.841 808.337 575.71C807.587 574.594 807.357 573.215 807.646 571.574C807.901 570.129 808.5 569.032 809.444 568.282C810.465 567.48 811.692 567.235 813.125 567.545C815.08 567.967 816.39 569.171 817.055 571.155C817.143 571.038 817.21 570.848 817.257 570.585C817.894 566.974 815.844 563.634 811.109 560.565L802.822 555.195L756.967 563.782C754.555 564.419 752.892 565.218 751.978 566.179C751.065 567.14 750.51 568.179 750.313 569.295L748.26 568.851C749.149 566.113 749.912 562.938 750.548 559.327C751.127 556.044 751.684 551.734 752.219 546.397L754.272 546.841C753.855 549.205 753.744 550.987 753.938 552.188C754.144 553.323 754.996 554.052 756.495 554.376C757.863 554.672 759.529 554.624 761.492 554.23L792.703 548.712L766.383 531.672C764.556 530.527 763.121 529.841 762.078 529.616C760.58 529.292 759.368 529.643 758.442 530.67C757.517 531.697 756.731 533.469 756.084 535.987L754.13 535.565C754.939 532.127 755.523 529.391 755.881 527.356ZM801.15 511.739C803.822 512.317 805.777 512.16 807.016 511.27C808.191 510.365 809.021 508.534 809.507 505.776L811.56 506.22C810.234 512.204 809.403 516.148 809.067 518.052C808.732 519.956 808.162 523.956 807.357 530.053L805.305 529.609C805.791 526.851 805.644 524.809 804.863 523.481C804.017 522.14 802.259 521.18 799.587 520.602L743.777 508.532C740.78 507.883 738.499 507.969 736.934 508.79C735.369 509.61 734.343 511.399 733.857 514.156L731.804 513.712C732.358 511.719 732.815 509.705 733.174 507.67C733.903 503.534 734.049 500.021 733.611 497.132L801.15 511.739ZM739.656 473.786C739.957 472.079 740.836 470.736 742.294 469.756C743.752 468.777 745.328 468.47 747.023 468.837C748.717 469.203 750.073 470.144 751.091 471.659C752.109 473.174 752.468 474.785 752.167 476.492C751.866 478.199 750.986 479.543 749.528 480.522C748.07 481.502 746.494 481.809 744.8 481.442C743.106 481.076 741.75 480.135 740.731 478.62C739.713 477.105 739.355 475.493 739.656 473.786ZM806.24 482.871C808.912 483.449 810.867 483.292 812.107 482.402C813.281 481.497 814.111 479.666 814.597 476.908L816.65 477.352C815.324 483.336 814.493 487.28 814.158 489.184C813.822 491.088 813.252 495.088 812.447 501.185L810.395 500.741C810.881 497.983 810.734 495.941 809.953 494.613C809.108 493.272 807.349 492.312 804.677 491.734L774.085 485.118C771.087 484.469 768.806 484.555 767.241 485.376C765.676 486.196 764.65 487.985 764.164 490.742L762.111 490.298C762.677 488.239 763.134 486.225 763.481 484.256C764.21 480.119 764.356 476.607 763.919 473.718L806.24 482.871ZM768.939 443.522C769.355 441.159 770.084 439.135 771.125 437.452C772.166 435.769 773.273 434.475 774.448 433.57C775.096 432.961 775.461 432.426 775.542 431.966C775.751 430.785 774.444 429.752 771.624 428.87L772.023 426.605C775.17 427.558 780.685 428.887 788.569 430.592L788.17 432.857C783.742 432.649 779.942 433.293 776.77 434.788C773.609 436.217 771.67 438.967 770.952 443.038C770.535 445.401 770.878 447.486 771.98 449.292C773.017 451.084 774.708 452.233 777.054 452.741C779.335 453.234 781.396 452.862 783.237 451.624C785.014 450.373 787.284 448.24 790.048 445.225C790.478 444.705 791.188 443.938 792.178 442.926C794.666 440.328 796.821 438.273 798.644 436.758C800.466 435.244 802.454 434.14 804.605 433.447C806.768 432.688 809.121 432.583 811.662 433.133C815.962 434.063 819.029 436.43 820.861 440.234C822.705 443.973 823.21 448.206 822.376 452.933C821.855 455.887 820.942 458.382 819.636 460.417C818.664 461.706 817.547 462.862 816.285 463.884C815.978 464.09 815.796 464.357 815.738 464.685C815.657 465.145 815.907 465.642 816.489 466.177C817.083 466.646 817.949 467.106 819.087 467.557L818.688 469.822C815.02 468.756 808.527 467.215 799.209 465.2L799.609 462.935C805.861 463.538 810.686 463.218 814.085 461.976C817.418 460.721 819.489 457.795 820.3 453.199C820.705 450.901 820.314 448.704 819.128 446.607C817.942 444.511 815.753 443.117 812.56 442.426C810.019 441.877 807.712 442.298 805.64 443.69C803.58 445.017 800.964 447.382 797.794 450.785C795.206 453.566 793.105 455.701 791.489 457.192C789.885 458.617 788.034 459.716 785.936 460.489C783.838 461.262 781.518 461.374 778.977 460.824C774.872 459.937 771.987 457.881 770.323 454.659C768.659 451.436 768.198 447.724 768.939 443.522ZM777.859 401.565L780.429 386.99L782.384 387.413L779.814 401.988L817.639 410.169C820.571 410.803 822.782 410.736 824.27 409.967C825.77 409.133 826.699 407.698 827.058 405.663C827.417 403.627 826.909 401.711 825.535 399.915C824.161 398.118 821.703 396.326 818.163 394.537L818.999 392.674C827.702 396.26 831.445 401.5 830.23 408.393C829.836 410.625 829.251 412.407 828.475 413.739C827.699 415.071 826.659 416.175 825.355 417.051C823.666 418.186 821.728 418.823 819.538 418.963C817.361 419.037 814.512 418.694 810.994 417.933L778.251 410.851L776.584 420.305L774.629 419.882L776.296 410.428L761.342 407.194C761.86 403.489 761.924 400.436 761.536 398.035L777.859 401.565Z" fill="#CBCBCB"/>
<path d="M658.564 1328.05C662.881 1327.35 665.366 1325.54 666.017 1322.61L667.972 1323.03C667.314 1325.62 666.596 1329.11 665.821 1333.51C664.825 1339.15 664.182 1343.38 663.891 1346.18L661.937 1345.75C662.246 1343.23 662.265 1341.4 661.995 1340.25C661.67 1339.02 660.856 1338.26 659.553 1337.98C658.445 1337.74 656.845 1337.8 654.751 1338.17L637.662 1340.71L633.46 1364.54L643.108 1370.82C646.396 1372.89 648.951 1374.13 650.776 1374.52C652.796 1374.96 654.383 1374.59 655.539 1373.41C656.706 1372.16 657.576 1370.1 658.151 1367.22L660.106 1367.65C659.25 1371.35 658.487 1375.1 657.816 1378.91C657.295 1381.86 656.958 1384.35 656.806 1386.36L654.852 1385.93C654.649 1382.48 652.271 1379.28 647.72 1376.32L592.57 1340.36L592.848 1338.79L658.564 1328.05ZM635.569 1341.07L604.399 1345.78L631.644 1363.33L635.569 1341.07ZM622.065 1278.97C622.528 1276.34 623.654 1274.37 625.442 1273.06C627.242 1271.67 629.217 1271.21 631.367 1271.68C633.061 1272.05 634.435 1272.89 635.487 1274.21C636.487 1275.44 636.836 1276.92 636.535 1278.62C636.28 1280.07 635.604 1281.22 634.507 1282.07C633.421 1282.86 632.096 1283.08 630.532 1282.74C628.382 1282.28 626.819 1280.78 625.844 1278.25C625.112 1278.57 624.664 1279.19 624.502 1280.11C624.051 1282.67 624.65 1285.22 626.299 1287.76C627.884 1290.28 630.005 1292.45 632.664 1294.25C635.323 1296.05 637.923 1297.22 640.464 1297.77L661.185 1302.26C664.182 1302.9 666.418 1302.5 667.892 1301.05C669.377 1299.53 670.427 1297.03 671.04 1293.55L673.093 1293.99L672.578 1296.34C671.202 1302.99 670.352 1307.24 670.028 1309.08C669.727 1310.78 669.174 1314.68 668.369 1320.78L666.317 1320.34C666.803 1317.58 666.656 1315.54 665.875 1314.21C665.03 1312.87 663.271 1311.91 660.599 1311.33L630.007 1304.71C627.009 1304.07 624.728 1304.15 623.163 1304.97C621.598 1305.79 620.572 1307.58 620.086 1310.34L618.033 1309.89C618.599 1307.84 619.056 1305.82 619.403 1303.85C620.132 1299.72 620.278 1296.2 619.841 1293.31L632.058 1295.96C629.009 1294.07 626.439 1291.57 624.349 1288.46C622.271 1285.29 621.51 1282.12 622.065 1278.97ZM628.659 1250.21L631.229 1235.63L633.184 1236.05L630.614 1250.63L668.44 1258.81C671.372 1259.44 673.582 1259.38 675.071 1258.61C676.571 1257.77 677.5 1256.34 677.859 1254.3C678.218 1252.27 677.71 1250.35 676.336 1248.55C674.962 1246.76 672.504 1244.97 668.964 1243.18L669.8 1241.31C678.502 1244.9 682.246 1250.14 681.03 1257.03C680.637 1259.27 680.052 1261.05 679.276 1262.38C678.5 1263.71 677.46 1264.82 676.155 1265.69C674.467 1266.83 672.528 1267.46 670.339 1267.6C668.161 1267.68 665.313 1267.33 661.794 1266.57L629.051 1259.49L627.384 1268.95L625.43 1268.52L627.097 1259.07L612.142 1255.83C612.66 1252.13 612.725 1249.08 612.337 1246.68L628.659 1250.21ZM609.449 1214.71C609.75 1213.01 610.63 1211.66 612.088 1210.68C613.546 1209.7 615.122 1209.4 616.816 1209.76C618.51 1210.13 619.866 1211.07 620.884 1212.59C621.902 1214.1 622.261 1215.71 621.96 1217.42C621.659 1219.13 620.78 1220.47 619.322 1221.45C617.864 1222.43 616.287 1222.74 614.593 1222.37C612.899 1222 611.543 1221.06 610.525 1219.55C609.507 1218.03 609.148 1216.42 609.449 1214.71ZM676.034 1223.8C678.705 1224.38 680.661 1224.22 681.9 1223.33C683.074 1222.42 683.904 1220.59 684.391 1217.84L686.443 1218.28C685.118 1224.26 684.287 1228.21 683.951 1230.11C683.615 1232.01 683.045 1236.02 682.241 1242.11L680.188 1241.67C680.675 1238.91 680.527 1236.87 679.747 1235.54C678.901 1234.2 677.142 1233.24 674.471 1232.66L643.878 1226.04C640.881 1225.4 638.6 1225.48 637.034 1226.3C635.469 1227.12 634.444 1228.91 633.957 1231.67L631.905 1231.23C632.471 1229.17 632.927 1227.15 633.275 1225.18C634.004 1221.05 634.15 1217.53 633.712 1214.64L676.034 1223.8ZM638.732 1184.45C639.149 1182.09 639.878 1180.06 640.919 1178.38C641.959 1176.7 643.067 1175.4 644.241 1174.5C644.89 1173.89 645.255 1173.35 645.336 1172.89C645.544 1171.71 644.238 1170.68 641.417 1169.8L641.817 1167.53C644.963 1168.48 650.479 1169.81 658.363 1171.52L657.964 1173.78C653.536 1173.58 649.735 1174.22 646.563 1175.71C643.402 1177.14 641.463 1179.89 640.745 1183.96C640.329 1186.33 640.671 1188.41 641.773 1190.22C642.81 1192.01 644.502 1193.16 646.847 1193.67C649.128 1194.16 651.189 1193.79 653.031 1192.55C654.807 1191.3 657.078 1189.17 659.841 1186.15C660.271 1185.63 660.982 1184.87 661.972 1183.85C664.459 1181.26 666.614 1179.2 668.437 1177.69C670.26 1176.17 672.247 1175.07 674.399 1174.37C676.562 1173.62 678.914 1173.51 681.455 1174.06C685.756 1174.99 688.822 1177.36 690.654 1181.16C692.498 1184.9 693.003 1189.13 692.17 1193.86C691.649 1196.81 690.735 1199.31 689.429 1201.34C688.458 1202.63 687.341 1203.79 686.078 1204.81C685.772 1205.02 685.589 1205.28 685.531 1205.61C685.45 1206.07 685.701 1206.57 686.283 1207.1C686.877 1207.57 687.743 1208.03 688.881 1208.48L688.481 1210.75C684.813 1209.68 678.321 1208.14 669.003 1206.13L669.402 1203.86C675.655 1204.46 680.48 1204.15 683.878 1202.9C687.211 1201.65 689.283 1198.72 690.093 1194.13C690.498 1191.83 690.108 1189.63 688.922 1187.53C687.736 1185.44 685.546 1184.04 682.353 1183.35C679.812 1182.8 677.506 1183.22 675.434 1184.62C673.373 1185.94 670.758 1188.31 667.587 1191.71C665 1194.49 662.899 1196.63 661.283 1198.12C659.679 1199.54 657.827 1200.64 655.729 1201.42C653.631 1202.19 651.312 1202.3 648.771 1201.75C644.665 1200.86 641.781 1198.81 640.117 1195.59C638.453 1192.36 637.991 1188.65 638.732 1184.45ZM647.652 1142.49L650.222 1127.92L652.177 1128.34L649.607 1142.91L687.433 1151.1C690.365 1151.73 692.575 1151.66 694.063 1150.89C695.563 1150.06 696.493 1148.62 696.852 1146.59C697.211 1144.55 696.703 1142.64 695.329 1140.84C693.954 1139.04 691.497 1137.25 687.956 1135.46L688.792 1133.6C697.495 1137.19 701.239 1142.43 700.023 1149.32C699.63 1151.55 699.045 1153.33 698.269 1154.67C697.493 1156 696.453 1157.1 695.148 1157.98C693.46 1159.11 691.521 1159.75 689.332 1159.89C687.154 1159.96 684.306 1159.62 680.787 1158.86L648.044 1151.78L646.377 1161.23L644.422 1160.81L646.089 1151.36L631.135 1148.12C631.653 1144.42 631.718 1141.36 631.33 1138.96L647.652 1142.49Z" fill="#CBCBCB"/>
<line x1="945.597" y1="2448.79" x2="1465.67" y2="-500.705" stroke="#AEAEAE" stroke-width="2"/>
<path d="M1126.73 1411.8L1144.32 1415.61C1146.8 1416.14 1148.64 1416.27 1149.84 1415.98C1151.04 1415.7 1151.95 1414.94 1152.57 1413.71C1153.19 1412.48 1153.83 1410.4 1154.48 1407.48L1156.44 1407.9C1155.64 1411.27 1154.69 1416.08 1153.59 1422.31C1152.59 1427.96 1151.95 1432.18 1151.66 1434.98L1149.71 1434.56C1149.99 1432.17 1150.03 1430.41 1149.83 1429.27C1149.63 1428.07 1149.02 1427.15 1147.98 1426.52C1146.94 1425.89 1145.18 1425.3 1142.71 1424.77L1094.23 1414.28C1091.75 1413.74 1089.92 1413.55 1088.75 1413.71C1087.57 1413.86 1086.69 1414.46 1086.1 1415.49C1085.52 1416.45 1084.96 1418.1 1084.42 1420.44L1082.46 1420.02C1083.14 1417.3 1083.95 1413.32 1084.87 1408.07L1086.65 1397.41C1086.8 1396.15 1087.02 1394.73 1087.3 1393.15C1088.65 1385.47 1091.45 1379.98 1095.68 1376.67C1099.86 1373.34 1104.87 1372.31 1110.74 1373.58C1114.32 1374.36 1117.63 1375.93 1120.66 1378.29C1123.64 1380.57 1125.9 1383.88 1127.43 1388.24C1128.98 1392.52 1129.19 1397.85 1128.07 1404.22L1126.73 1411.8ZM1088.72 1396.02C1088.36 1398.05 1088.32 1399.64 1088.59 1400.79C1088.87 1401.88 1089.57 1402.74 1090.67 1403.39C1091.77 1404.04 1093.5 1404.61 1095.84 1405.12L1124.77 1411.38L1125.94 1404.78C1127.07 1398.35 1126.16 1393.55 1123.2 1390.39C1120.18 1387.14 1115.81 1384.9 1110.08 1383.66C1103.76 1382.3 1098.87 1382.57 1095.42 1384.48C1091.99 1386.33 1089.75 1390.17 1088.72 1396.02ZM1113.96 1344.4C1115.14 1337.71 1118.3 1332.8 1123.45 1329.69C1128.54 1326.5 1135.56 1325.87 1144.48 1327.8C1153.41 1329.73 1159.69 1333.23 1163.33 1338.31C1166.98 1343.33 1168.21 1349.19 1167.03 1355.88C1165.85 1362.58 1162.71 1367.52 1157.61 1370.71C1152.53 1373.84 1145.53 1374.44 1136.6 1372.51C1127.67 1370.58 1121.38 1367.1 1117.74 1362.09C1114.04 1357 1112.77 1351.1 1113.96 1344.4ZM1115.91 1344.83C1115.22 1348.77 1116.69 1352.32 1120.32 1355.49C1123.89 1358.65 1129.88 1361.14 1138.28 1362.96C1146.69 1364.77 1153.08 1364.96 1157.46 1363.53C1161.84 1362.09 1164.38 1359.4 1165.07 1355.46C1165.77 1351.52 1164.33 1347.97 1160.76 1344.81C1157.19 1341.66 1151.2 1339.17 1142.8 1337.35C1134.39 1335.53 1128 1335.34 1123.62 1336.78C1119.17 1338.21 1116.61 1340.89 1115.91 1344.83ZM1124.62 1283.95C1125.08 1281.32 1126.2 1279.35 1127.99 1278.04C1129.79 1276.65 1131.77 1276.19 1133.92 1276.66C1135.61 1277.03 1136.98 1277.87 1138.04 1279.19C1139.04 1280.42 1139.39 1281.9 1139.08 1283.6C1138.83 1285.05 1138.15 1286.2 1137.06 1287.05C1135.97 1287.84 1134.65 1288.06 1133.08 1287.72C1130.93 1287.26 1129.37 1285.76 1128.39 1283.23C1127.66 1283.55 1127.21 1284.17 1127.05 1285.09C1126.6 1287.65 1127.2 1290.2 1128.85 1292.74C1130.43 1295.26 1132.55 1297.43 1135.21 1299.23C1137.87 1301.03 1140.47 1302.2 1143.01 1302.75L1163.73 1307.24C1166.73 1307.88 1168.97 1307.48 1170.44 1306.03C1171.93 1304.51 1172.98 1302.01 1173.59 1298.53L1175.64 1298.97L1175.13 1301.32C1173.75 1307.97 1172.9 1312.22 1172.58 1314.06C1172.28 1315.76 1171.72 1319.66 1170.92 1325.76L1168.87 1325.32C1169.35 1322.56 1169.21 1320.52 1168.42 1319.19C1167.58 1317.85 1165.82 1316.89 1163.15 1316.31L1132.56 1309.69C1129.56 1309.05 1127.28 1309.13 1125.71 1309.95C1124.15 1310.77 1123.12 1312.56 1122.64 1315.32L1120.58 1314.87C1121.15 1312.82 1121.61 1310.8 1121.95 1308.83C1122.68 1304.7 1122.83 1301.18 1122.39 1298.29L1134.61 1300.94C1131.56 1299.05 1128.99 1296.55 1126.9 1293.44C1124.82 1290.27 1124.06 1287.1 1124.62 1283.95ZM1131.21 1255.19L1133.78 1240.61L1135.73 1241.03L1133.16 1255.61L1170.99 1263.79C1173.92 1264.42 1176.13 1264.36 1177.62 1263.59C1179.12 1262.75 1180.05 1261.32 1180.41 1259.28C1180.77 1257.25 1180.26 1255.33 1178.89 1253.54C1177.51 1251.74 1175.05 1249.95 1171.51 1248.16L1172.35 1246.29C1181.05 1249.88 1184.8 1255.12 1183.58 1262.01C1183.19 1264.25 1182.6 1266.03 1181.83 1267.36C1181.05 1268.69 1180.01 1269.8 1178.7 1270.67C1177.02 1271.81 1175.08 1272.44 1172.89 1272.58C1170.71 1272.66 1167.86 1272.31 1164.34 1271.55L1131.6 1264.47L1129.93 1273.93L1127.98 1273.5L1129.65 1264.05L1114.69 1260.81C1115.21 1257.11 1115.27 1254.06 1114.89 1251.66L1131.21 1255.19ZM1112.65 1206.24C1113.25 1202.82 1114.63 1200.16 1116.8 1198.24C1118.78 1196.56 1120.98 1195.98 1123.39 1196.5C1124.89 1196.82 1126.04 1197.58 1126.85 1198.78C1127.65 1199.97 1127.92 1201.33 1127.65 1202.84C1127.39 1204.35 1126.71 1205.53 1125.61 1206.38C1124.45 1207.22 1123.05 1207.46 1121.42 1207.11C1120.05 1206.82 1119.01 1206.22 1118.29 1205.31C1117.58 1204.34 1117.21 1203.2 1117.17 1201.9C1116.48 1201.95 1115.87 1202.37 1115.32 1203.13C1114.78 1203.9 1114.4 1204.94 1114.17 1206.26C1113.91 1207.7 1114.01 1209.05 1114.47 1210.31C1114.92 1211.57 1115.65 1212.61 1116.65 1213.44C1117.83 1214.45 1119.66 1215.35 1122.16 1216.17C1124.67 1216.91 1128.92 1217.93 1134.91 1219.23L1137.45 1219.78L1139.31 1209.24L1141.26 1209.67L1139.41 1220.2L1177.62 1228.47C1180.62 1229.12 1182.86 1228.71 1184.33 1227.26C1185.82 1225.74 1186.87 1223.24 1187.48 1219.76L1189.53 1220.21L1189.02 1222.55C1187.64 1229.2 1186.79 1233.45 1186.47 1235.29C1186.17 1236.99 1185.61 1240.9 1184.81 1246.99L1182.76 1246.55C1183.24 1243.79 1183.09 1241.75 1182.31 1240.42C1181.47 1239.08 1179.71 1238.12 1177.04 1237.54L1137.84 1229.07L1136.45 1236.94L1134.5 1236.52L1135.89 1228.64C1130.16 1227.4 1125.79 1226.08 1122.79 1224.69C1119.79 1223.29 1117.35 1221.4 1115.47 1219.01C1114.2 1217.38 1113.32 1215.45 1112.83 1213.23C1112.28 1211 1112.22 1208.67 1112.65 1206.24ZM1142.82 1180.72C1144 1174.02 1147.16 1169.12 1152.31 1166C1157.41 1162.81 1164.42 1162.18 1173.34 1164.11C1182.27 1166.04 1188.55 1169.55 1192.19 1174.63C1195.84 1179.64 1197.07 1185.5 1195.89 1192.2C1194.71 1198.89 1191.57 1203.84 1186.48 1207.03C1181.39 1210.16 1174.39 1210.75 1165.46 1208.82C1156.53 1206.89 1150.25 1203.42 1146.6 1198.4C1142.9 1193.31 1141.64 1187.41 1142.82 1180.72ZM1144.77 1181.14C1144.08 1185.08 1145.55 1188.64 1149.18 1191.81C1152.75 1194.96 1158.74 1197.45 1167.15 1199.27C1175.55 1201.09 1181.94 1201.28 1186.32 1199.84C1190.7 1198.4 1193.24 1195.71 1193.94 1191.77C1194.63 1187.83 1193.19 1184.29 1189.62 1181.13C1186.05 1177.97 1180.07 1175.48 1171.66 1173.66C1163.25 1171.85 1156.86 1171.66 1152.48 1173.1C1148.04 1174.52 1145.47 1177.2 1144.77 1181.14ZM1193.28 1145.41C1195.95 1145.99 1197.91 1145.83 1199.15 1144.94C1200.32 1144.04 1201.15 1142.21 1201.64 1139.45L1203.69 1139.89C1202.37 1145.88 1201.54 1149.82 1201.2 1151.73C1200.86 1153.63 1200.29 1157.63 1199.49 1163.73L1197.44 1163.28C1197.92 1160.52 1197.78 1158.48 1197 1157.15C1196.15 1155.81 1194.39 1154.85 1191.72 1154.28L1135.91 1142.21C1132.91 1141.56 1130.63 1141.64 1129.07 1142.46C1127.5 1143.28 1126.48 1145.07 1125.99 1147.83L1123.94 1147.39C1124.49 1145.39 1124.95 1143.38 1125.31 1141.34C1126.04 1137.21 1126.18 1133.69 1125.74 1130.81L1193.28 1145.41ZM1131.79 1107.46C1132.09 1105.75 1132.97 1104.41 1134.43 1103.43C1135.89 1102.45 1137.46 1102.14 1139.16 1102.51C1140.85 1102.88 1142.21 1103.82 1143.22 1105.33C1144.24 1106.85 1144.6 1108.46 1144.3 1110.17C1144 1111.87 1143.12 1113.22 1141.66 1114.2C1140.2 1115.18 1138.63 1115.48 1136.93 1115.12C1135.24 1114.75 1133.88 1113.81 1132.86 1112.29C1131.85 1110.78 1131.49 1109.17 1131.79 1107.46ZM1198.37 1116.54C1201.04 1117.12 1203 1116.97 1204.24 1116.08C1205.41 1115.17 1206.24 1113.34 1206.73 1110.58L1208.78 1111.03C1207.46 1117.01 1206.63 1120.95 1206.29 1122.86C1205.95 1124.76 1205.38 1128.76 1204.58 1134.86L1202.53 1134.41C1203.01 1131.66 1202.87 1129.61 1202.09 1128.29C1201.24 1126.95 1199.48 1125.99 1196.81 1125.41L1166.22 1118.79C1163.22 1118.14 1160.94 1118.23 1159.37 1119.05C1157.81 1119.87 1156.78 1121.66 1156.3 1124.42L1154.24 1123.97C1154.81 1121.91 1155.27 1119.9 1155.61 1117.93C1156.34 1113.79 1156.49 1110.28 1156.05 1107.39L1198.37 1116.54ZM1162.22 1070.7C1163.4 1064 1166.56 1059.09 1171.71 1055.98C1176.81 1052.79 1183.82 1052.16 1192.74 1054.09C1201.67 1056.02 1207.95 1059.53 1211.59 1064.61C1215.24 1069.62 1216.47 1075.48 1215.29 1082.17C1214.11 1088.87 1210.97 1093.82 1205.88 1097.01C1200.79 1100.13 1193.79 1100.73 1184.86 1098.8C1175.93 1096.87 1169.65 1093.4 1166 1088.38C1162.3 1083.29 1161.04 1077.39 1162.22 1070.7ZM1164.17 1071.12C1163.48 1075.06 1164.95 1078.61 1168.58 1081.79C1172.15 1084.94 1178.14 1087.43 1186.55 1089.25C1194.95 1091.07 1201.34 1091.26 1205.72 1089.82C1210.1 1088.38 1212.64 1085.69 1213.34 1081.75C1214.03 1077.81 1212.59 1074.26 1209.02 1071.11C1205.45 1067.95 1199.47 1065.46 1191.06 1063.64C1182.65 1061.83 1176.26 1061.64 1171.88 1063.07C1167.44 1064.5 1164.87 1067.18 1164.17 1071.12ZM1202.69 1007.49L1196.42 1043.04L1190.75 1041.81L1197.02 1006.26L1202.69 1007.49ZM1174.49 909.581C1174.21 911.973 1174.16 913.769 1174.35 914.97C1174.56 916.105 1175.18 916.989 1176.22 917.622C1177.26 918.256 1179.02 918.84 1181.49 919.376L1229.97 929.861C1232.45 930.397 1234.27 930.587 1235.45 930.433C1236.63 930.278 1237.51 929.718 1238.08 928.752C1238.67 927.721 1239.24 926.037 1239.78 923.702L1241.74 924.125C1241.01 927.103 1240.18 931.251 1239.24 936.568C1238.24 942.215 1237.6 946.438 1237.31 949.237L1235.36 948.815C1235.64 946.423 1235.68 944.66 1235.48 943.525C1235.28 942.324 1234.67 941.407 1233.63 940.773C1232.59 940.14 1230.83 939.555 1228.36 939.02L1175.97 927.689L1235.02 965.1L1234.74 966.676L1166.93 977.774L1218.54 988.935C1221.08 989.485 1223.01 989.696 1224.31 989.57C1225.63 989.378 1226.7 988.722 1227.5 987.602C1228.24 986.467 1228.91 984.601 1229.5 982.003L1231.46 982.425C1230.85 984.747 1230.16 988.074 1229.39 992.407C1228.7 996.346 1228.26 999.42 1228.07 1001.63L1226.12 1001.21C1226.39 998.88 1226.37 997.103 1226.04 995.874C1225.65 994.631 1224.87 993.679 1223.71 993.017C1222.47 992.341 1220.62 991.736 1218.14 991.2L1170.64 980.927C1168.16 980.391 1166.34 980.2 1165.16 980.355C1163.98 980.509 1163.1 981.102 1162.51 982.134C1161.94 983.1 1161.37 984.75 1160.83 987.085L1158.87 986.663C1159.45 984.538 1160.09 981.507 1160.78 977.567C1161.38 974.153 1161.78 971.342 1161.96 969.133L1222.38 959.707L1169.81 926.357L1170.63 921.729C1171.56 916.411 1172.2 912.221 1172.54 909.158L1174.49 909.581ZM1245.9 904.556C1245.17 908.692 1243.62 911.559 1241.24 913.158C1238.8 914.676 1235.76 915.041 1232.11 914.252C1229.18 913.618 1226.91 912.308 1225.3 910.324C1223.7 908.274 1222.54 906.046 1221.81 903.64C1221.1 901.168 1220.44 897.993 1219.84 894.114C1219.25 890.17 1218.59 887.198 1217.86 885.2C1217.13 883.202 1215.88 882.013 1214.12 881.632L1208.06 880.322C1204.28 879.504 1201.57 879.768 1199.91 881.114C1198.2 882.379 1197.09 884.457 1196.58 887.345C1195.77 891.941 1196.37 895.445 1198.38 897.856C1198.93 896.613 1199.81 895.678 1201 895.05C1202.21 894.356 1203.59 894.179 1205.15 894.517C1206.78 894.869 1207.99 895.676 1208.79 896.938C1209.51 898.186 1209.73 899.63 1209.44 901.272C1209.12 903.11 1208.32 904.369 1207.05 905.049C1205.72 905.714 1204.23 905.871 1202.61 905.518C1201.04 905.18 1199.8 904.537 1198.89 903.589C1197.98 902.576 1197.14 901.202 1196.37 899.466C1195.54 897.651 1194.98 895.451 1194.69 892.867C1194.4 890.283 1194.51 887.546 1195.02 884.657C1195.92 879.536 1197.81 875.924 1200.69 873.819C1202.47 872.502 1204.49 871.813 1206.73 871.753C1208.92 871.613 1211.74 871.916 1215.2 872.663L1242.37 878.54C1244 878.892 1245.21 878.916 1246.01 878.612C1246.81 878.307 1247.3 877.597 1247.5 876.481C1247.64 875.693 1247.6 874.935 1247.39 874.208C1247.13 873.402 1246.74 872.534 1246.23 871.605L1248.08 870.881C1249.08 872.87 1249.77 874.552 1250.14 875.926C1250.45 877.22 1250.44 878.787 1250.12 880.625C1249.56 883.776 1248.39 885.807 1246.61 886.716C1244.83 887.625 1242.6 887.791 1239.93 887.213C1242.84 889.887 1244.72 892.646 1245.57 895.488C1246.36 898.316 1246.47 901.339 1245.9 904.556ZM1242.75 899.377C1243.52 895.044 1241.7 890.799 1237.29 886.642L1218.13 882.499C1218.94 883.287 1219.54 884.27 1219.94 885.447C1220.35 886.625 1220.84 888.402 1221.44 890.78C1222.04 893.5 1222.69 895.754 1223.39 897.541C1224.04 899.249 1225.08 900.836 1226.51 902.305C1227.94 903.773 1229.93 904.782 1232.47 905.332C1235.4 905.966 1237.75 905.723 1239.5 904.603C1241.25 903.483 1242.34 901.741 1242.75 899.377ZM1205.67 824.284C1206.48 819.688 1208.33 816.476 1211.22 814.648C1212.74 813.683 1214.53 813.149 1216.58 813.046C1218.62 812.944 1221.31 813.252 1224.63 813.971L1250.73 819.615C1253.4 820.193 1255.36 820.036 1256.6 819.146C1257.77 818.241 1258.6 816.41 1259.09 813.653L1261.14 814.096C1259.81 820.08 1258.99 823.991 1258.66 825.83C1258.34 827.668 1257.82 831.373 1257.11 836.944L1255.06 836.5C1255.49 834.071 1255.29 832.291 1254.48 831.16C1253.61 829.95 1251.84 829.056 1249.17 828.478L1220.92 822.369C1217.27 821.58 1214.41 821.506 1212.33 822.148C1210.19 822.776 1208.84 824.698 1208.27 827.915C1207.8 830.607 1208.16 833.172 1209.35 835.611C1210.54 838.051 1212.41 840.157 1214.93 841.931C1217.41 843.625 1220.31 844.831 1223.63 845.55L1245.33 850.243C1248 850.82 1249.94 850.762 1251.14 850.069C1252.29 849.295 1253.08 847.694 1253.51 845.265L1255.57 845.709C1254.33 851.167 1253.55 854.816 1253.23 856.654C1252.91 858.492 1252.34 862.46 1251.54 868.556L1249.48 868.112C1249.97 865.355 1249.82 863.312 1249.04 861.985C1248.2 860.643 1246.44 859.684 1243.77 859.106L1213.17 852.489C1210.18 851.841 1207.9 851.927 1206.33 852.747C1204.76 853.567 1203.74 855.356 1203.25 858.114L1201.2 857.67C1201.77 855.611 1202.22 853.597 1202.57 851.627C1203.3 847.491 1203.45 843.978 1203.01 841.089L1214.54 843.584C1210.66 841.04 1208.06 838.127 1206.75 834.844C1205.38 831.481 1205.02 827.961 1205.67 824.284ZM1264.91 796.746C1264.18 800.883 1262.63 803.75 1260.25 805.348C1257.81 806.867 1254.77 807.232 1251.12 806.442C1248.19 805.808 1245.92 804.499 1244.31 802.515C1242.71 800.465 1241.55 798.236 1240.82 795.83C1240.11 793.359 1239.45 790.183 1238.85 786.305C1238.26 782.36 1237.6 779.389 1236.87 777.391C1236.14 775.393 1234.89 774.203 1233.13 773.823L1227.07 772.512C1223.29 771.695 1220.58 771.959 1218.92 773.304C1217.21 774.57 1216.1 776.647 1215.59 779.536C1214.78 784.132 1215.38 787.635 1217.39 790.046C1217.94 788.804 1218.82 787.868 1220.01 787.24C1221.22 786.547 1222.6 786.369 1224.16 786.707C1225.79 787.06 1227 787.867 1227.8 789.129C1228.52 790.376 1228.74 791.821 1228.45 793.462C1228.13 795.301 1227.33 796.559 1226.06 797.239C1224.73 797.905 1223.24 798.061 1221.62 797.709C1220.05 797.371 1218.81 796.728 1217.9 795.78C1216.99 794.767 1216.15 793.392 1215.38 791.657C1214.55 789.841 1213.99 787.642 1213.7 785.057C1213.41 782.473 1213.52 779.737 1214.03 776.848C1214.93 771.727 1216.82 768.114 1219.7 766.009C1221.48 764.692 1223.5 764.003 1225.74 763.943C1227.93 763.803 1230.75 764.107 1234.21 764.854L1261.38 770.73C1263.01 771.083 1264.22 771.107 1265.02 770.802C1265.82 770.498 1266.31 769.787 1266.51 768.671C1266.65 767.883 1266.61 767.126 1266.4 766.399C1266.14 765.592 1265.75 764.724 1265.24 763.796L1267.09 763.072C1268.09 765.06 1268.78 766.742 1269.15 768.116C1269.46 769.411 1269.45 770.977 1269.13 772.816C1268.57 775.967 1267.4 777.997 1265.62 778.906C1263.84 779.816 1261.61 779.981 1258.94 779.404C1261.85 782.078 1263.73 784.836 1264.58 787.678C1265.37 790.507 1265.48 793.529 1264.91 796.746ZM1261.76 791.568C1262.53 787.234 1260.71 782.99 1256.3 778.833L1237.14 774.689C1237.95 775.478 1238.55 776.46 1238.95 777.638C1239.36 778.815 1239.85 780.593 1240.45 782.971C1241.05 785.691 1241.7 787.945 1242.4 789.732C1243.05 791.439 1244.09 793.027 1245.52 794.495C1246.95 795.964 1248.94 796.973 1251.48 797.522C1254.41 798.157 1256.75 797.914 1258.51 796.793C1260.26 795.673 1261.35 793.931 1261.76 791.568ZM1236.68 708.234C1236.47 709.416 1235.9 710.349 1234.97 711.033C1234.05 711.652 1232.84 711.799 1231.34 711.475C1230.04 711.193 1228.6 710.541 1227.02 709.518C1227.43 711.38 1228.01 712.902 1228.75 714.084C1229.42 715.252 1230.34 716.371 1231.51 717.441C1234.05 716.424 1237.09 716.296 1240.61 717.057C1245.75 718.17 1249.35 720.585 1251.4 724.3C1253.39 728.001 1253.92 732.445 1253.01 737.631L1252.99 737.73C1253.85 740.164 1254.7 742.052 1255.54 743.394C1256.39 744.735 1257.47 745.547 1258.77 745.829C1260.85 746.28 1262.17 744.93 1262.73 741.778L1264.9 729.468C1265.69 725.004 1267.31 721.538 1269.78 719.072C1272.19 716.527 1275.32 715.67 1279.16 716.501C1282.29 717.178 1285.01 718.822 1287.32 721.435C1289.63 724.048 1291.26 727.501 1292.19 731.792C1293.13 736.084 1293.1 741.02 1292.12 746.6C1291.11 752.312 1289.38 756.915 1286.94 760.408C1284.58 763.849 1281.7 765.204 1278.31 764.471C1276.1 763.992 1274.33 762.69 1273.01 760.565C1271.71 758.374 1270.88 755.572 1270.54 752.157L1272.21 751.905C1272.41 753.448 1273.12 754.794 1274.34 755.943C1275.55 757.093 1277.01 757.851 1278.7 758.217C1281.7 758.865 1284.22 758.013 1286.26 755.659C1288.37 753.254 1289.84 749.754 1290.65 745.158C1291.54 740.102 1291.32 735.558 1290.01 731.524C1288.75 727.505 1286.11 725.058 1282.07 724.184C1279.72 723.677 1277.75 724.136 1276.14 725.561C1274.55 726.92 1273.38 729.734 1272.62 734.001L1271.34 741.289C1270.66 745.162 1269.62 748.175 1268.22 750.327C1266.84 752.414 1264.68 753.14 1261.75 752.506C1259.73 752.069 1257.94 750.931 1256.37 749.092C1254.81 747.187 1253.45 744.338 1252.29 740.543C1251.07 744.778 1248.96 747.933 1245.96 750.01C1242.96 752.021 1239.15 752.526 1234.53 751.525C1229.38 750.412 1225.81 748.005 1223.83 744.304C1221.78 740.589 1221.21 736.138 1222.12 730.951C1223.21 724.78 1225.71 720.583 1229.62 718.362C1228.08 716.734 1226.92 714.848 1226.15 712.705C1225.32 710.547 1225.07 708.516 1225.4 706.612C1225.7 704.905 1226.43 703.632 1227.6 702.793C1228.76 701.954 1230.25 701.732 1232.08 702.126C1233.9 702.521 1235.18 703.342 1235.9 704.59C1236.64 705.772 1236.9 706.987 1236.68 708.234ZM1251.25 737.251C1251.71 734.625 1251.05 732.437 1249.26 730.687C1247.42 728.857 1243.99 727.399 1238.97 726.314C1233.96 725.229 1230.32 725.158 1228.05 726.099C1225.74 726.962 1224.35 728.706 1223.88 731.332C1223.42 733.958 1224.11 736.186 1225.95 738.016C1227.74 739.766 1231.14 741.183 1236.16 742.268C1241.18 743.353 1244.84 743.465 1247.16 742.603C1249.42 741.661 1250.79 739.877 1251.25 737.251ZM1275.36 664.402C1278.73 666.359 1281.44 669.26 1283.46 673.107C1285.44 676.873 1286.02 681.055 1285.21 685.65C1284.39 690.312 1282.63 694.124 1279.94 697.087C1277.19 700.036 1273.76 702.021 1269.66 703.042C1265.5 703.983 1260.92 703.911 1255.9 702.826C1250.23 701.6 1245.47 699.617 1241.63 696.876C1237.78 694.136 1235.05 690.852 1233.42 687.025C1231.73 683.183 1231.28 679.03 1232.07 674.566C1233.11 668.657 1235.7 664.514 1239.84 662.138C1243.92 659.682 1249.58 659.236 1256.82 660.8L1251.38 691.625C1253.17 692.216 1255.24 692.766 1257.58 693.273C1261.88 694.203 1265.75 694.324 1269.19 693.636C1272.64 692.882 1275.44 691.547 1277.61 689.629C1279.72 687.632 1281 685.353 1281.45 682.793C1282.01 679.641 1281.75 676.689 1280.68 673.936C1279.61 671.182 1277.46 668.605 1274.23 666.202L1275.36 664.402ZM1233.85 675.361C1233.31 678.447 1234.34 681.43 1236.94 684.311C1239.55 687.191 1243.73 689.528 1249.51 691.322L1253.29 669.853C1248.23 668.622 1243.86 668.461 1240.19 669.37C1236.52 670.213 1234.41 672.21 1233.85 675.361ZM1242.03 618.052C1242.49 615.425 1243.62 613.454 1245.41 612.137C1247.21 610.754 1249.18 610.295 1251.33 610.76C1253.03 611.126 1254.4 611.969 1255.45 613.287C1256.45 614.525 1256.8 615.998 1256.5 617.705C1256.25 619.149 1255.57 620.298 1254.47 621.151C1253.39 621.939 1252.06 622.163 1250.5 621.825C1248.35 621.36 1246.78 619.864 1245.81 617.335C1245.08 617.654 1244.63 618.273 1244.47 619.192C1244.02 621.753 1244.62 624.302 1246.27 626.84C1247.85 629.363 1249.97 631.526 1252.63 633.328C1255.29 635.13 1257.89 636.305 1260.43 636.855L1281.15 641.337C1284.15 641.985 1286.38 641.582 1287.86 640.129C1289.34 638.61 1290.39 636.111 1291.01 632.631L1293.06 633.075L1292.54 635.417C1291.17 642.072 1290.32 646.318 1289.99 648.156C1289.69 649.863 1289.14 653.765 1288.34 659.862L1286.28 659.418C1286.77 656.66 1286.62 654.618 1285.84 653.29C1285 651.949 1283.24 650.989 1280.57 650.411L1249.97 643.795C1246.97 643.146 1244.69 643.232 1243.13 644.053C1241.56 644.873 1240.54 646.661 1240.05 649.419L1238 648.975C1238.56 646.916 1239.02 644.902 1239.37 642.933C1240.1 638.796 1240.24 635.284 1239.81 632.395L1252.02 635.037C1248.97 633.151 1246.4 630.652 1244.31 627.542C1242.24 624.367 1241.48 621.203 1242.03 618.052Z" fill="#CBCBCB"/>
</g>
<defs>
<clipPath id="clip0">
<rect width="1500" height="1500" fill="white"/>
</clipPath>
</defs>
</svg>
